<svg width="43" height="37" viewBox="0 0 43 37" fill="none" xmlns="http://www.w3.org/2000/svg">
<g clip-path="url(#clip0_117_63)">
<path d="M43 15.4198H39.9275V18.5038H43V15.4198Z" fill="black"/>
<path d="M43 12.3358H39.9275V15.4198H43V12.3358Z" fill="black"/>
<path d="M43 9.25195H39.9275V12.3359H43V9.25195Z" fill="black"/>
<path d="M43 6.17554H39.9275V9.2595H43V6.17554Z" fill="black"/>
<path d="M39.9275 18.5038H36.855V21.5877H39.9275V18.5038Z" fill="black"/>
<path d="M39.9275 15.4198H36.855V18.5038H39.9275V15.4198Z" fill="black"/>
<path d="M39.9275 12.3358H36.855V15.4198H39.9275V12.3358Z" fill="black"/>
<path d="M39.9275 9.25195H36.855V12.3359H39.9275V9.25195Z" fill="black"/>
<path d="M39.9275 6.17554H36.855V9.2595H39.9275V6.17554Z" fill="black"/>
<path d="M39.9275 3.09155H36.855V6.17552H39.9275V3.09155Z" fill="black"/>
<path d="M36.855 21.5878H33.7825V24.6717H36.855V21.5878Z" fill="black"/>
<path d="M36.855 18.5038H33.7825V21.5877H36.855V18.5038Z" fill="black"/>
<path d="M36.855 15.4198H33.7825V18.5038H36.855V15.4198Z" fill="black"/>
<path d="M36.855 12.3358H33.7825V15.4198H36.855V12.3358Z" fill="black"/>
<path d="M36.855 9.25195H33.7825V12.3359H36.855V9.25195Z" fill="black"/>
<path d="M36.8625 6.17554H33.79V9.2595H36.8625V6.17554Z" fill="black"/>
<path d="M36.8625 3.09155H33.79V6.17552H36.8625V3.09155Z" fill="black"/>
<path d="M36.8625 0.00756836H33.79V3.09153H36.8625V0.00756836Z" fill="black"/>
<path d="M33.7825 24.6642H30.71V27.7481H33.7825V24.6642Z" fill="black"/>
<path d="M33.7825 21.5878H30.71V24.6717H33.7825V21.5878Z" fill="black"/>
<path d="M33.7825 18.5038H30.71V21.5877H33.7825V18.5038Z" fill="black"/>
<path d="M33.7825 15.4198H30.71V18.5038H33.7825V15.4198Z" fill="black"/>
<path d="M33.7825 12.3358H30.71V15.4198H33.7825V12.3358Z" fill="black"/>
<path d="M33.79 9.25195H30.7175V12.3359H33.79V9.25195Z" fill="black"/>
<path d="M33.79 6.16797H30.7175V9.25193H33.79V6.16797Z" fill="black"/>
<path d="M33.79 3.09155H30.7175V6.17552H33.79V3.09155Z" fill="black"/>
<path d="M33.79 0.00756836H30.7175V3.09153H33.79V0.00756836Z" fill="black"/>
<path d="M30.71 27.748H27.6375V30.832H30.71V27.748Z" fill="black"/>
<path d="M30.71 24.6642H27.6375V27.7481H30.71V24.6642Z" fill="black"/>
<path d="M30.71 21.5878H27.6375V24.6717H30.71V21.5878Z" fill="black"/>
<path d="M30.7175 18.5038H27.645V21.5877H30.7175V18.5038Z" fill="black"/>
<path d="M30.7175 15.4198H27.645V18.5038H30.7175V15.4198Z" fill="black"/>
<path d="M30.7175 12.3358H27.645V15.4198H30.7175V12.3358Z" fill="black"/>
<path d="M30.7175 9.25195H27.645V12.3359H30.7175V9.25195Z" fill="black"/>
<path d="M30.7175 6.16797H27.645V9.25193H30.7175V6.16797Z" fill="black"/>
<path d="M30.7175 3.09155H27.645V6.17552H30.7175V3.09155Z" fill="black"/>
<path d="M30.7175 0.00756836H27.645V3.09153H30.7175V0.00756836Z" fill="black"/>
<path d="M27.6375 30.832H24.565V33.916H27.6375V30.832Z" fill="black"/>
<path d="M27.6375 27.748H24.565V30.832H27.6375V27.748Z" fill="black"/>
<path d="M27.645 24.6642H24.5725V27.7481H27.645V24.6642Z" fill="black"/>
<path d="M27.645 21.5878H24.5725V24.6717H27.645V21.5878Z" fill="black"/>
<path d="M27.645 18.5038H24.5725V21.5877H27.645V18.5038Z" fill="black"/>
<path d="M27.645 15.4198H24.5725V18.5038H27.645V15.4198Z" fill="black"/>
<path d="M27.645 12.3358H24.5725V15.4198H27.645V12.3358Z" fill="black"/>
<path d="M27.645 9.25195H24.5725V12.3359H27.645V9.25195Z" fill="black"/>
<path d="M27.645 6.16797H24.5725V9.25193H27.645V6.16797Z" fill="black"/>
<path d="M27.645 3.08398H24.5725V6.16795H27.645V3.08398Z" fill="black"/>
<path d="M27.645 0.00756836H24.5725V3.09153H27.645V0.00756836Z" fill="black"/>
<path d="M24.565 33.916H21.4924V37H24.565V33.916Z" fill="black"/>
<path d="M24.565 30.832H21.4924V33.916H24.565V30.832Z" fill="black"/>
<path d="M24.5725 27.748H21.5V30.832H24.5725V27.748Z" fill="black"/>
<path d="M24.5725 24.6642H21.5V27.7481H24.5725V24.6642Z" fill="black"/>
<path d="M24.5725 21.5802H21.5V24.6642H24.5725V21.5802Z" fill="black"/>
<path d="M24.5725 18.5038H21.5V21.5877H24.5725V18.5038Z" fill="black"/>
<path d="M24.5725 15.4198H21.5V18.5038H24.5725V15.4198Z" fill="black"/>
<path d="M24.5725 12.3358H21.5V15.4198H24.5725V12.3358Z" fill="black"/>
<path d="M24.5725 9.25195H21.5V12.3359H24.5725V9.25195Z" fill="black"/>
<path d="M24.5725 6.16797H21.5V9.25193H24.5725V6.16797Z" fill="black"/>
<path d="M24.5725 3.08398H21.5V6.16795H24.5725V3.08398Z" fill="black"/>
<path d="M21.5 33.916H18.4275V37H21.5V33.916Z" fill="black"/>
<path d="M21.5 30.832H18.4275V33.916H21.5V30.832Z" fill="black"/>
<path d="M21.5 27.748H18.4275V30.832H21.5V27.748Z" fill="black"/>
<path d="M21.5 24.6642H18.4275V27.7481H21.5V24.6642Z" fill="black"/>
<path d="M21.5 21.5802H18.4275V24.6642H21.5V21.5802Z" fill="black"/>
<path d="M21.5 18.5038H18.4275V21.5877H21.5V18.5038Z" fill="black"/>
<path d="M21.5 15.4198H18.4275V18.5038H21.5V15.4198Z" fill="black"/>
<path d="M21.5 12.3358H18.4275V15.4198H21.5V12.3358Z" fill="black"/>
<path d="M21.5 9.25195H18.4275V12.3359H21.5V9.25195Z" fill="black"/>
<path d="M21.5 6.16797H18.4275V9.25193H21.5V6.16797Z" fill="black"/>
<path d="M21.5 3.08398H18.4275V6.16795H21.5V3.08398Z" fill="black"/>
<path d="M18.4275 30.832H15.355V33.916H18.4275V30.832Z" fill="black"/>
<path d="M18.4275 27.748H15.355V30.832H18.4275V27.748Z" fill="black"/>
<path d="M18.4275 24.6642H15.355V27.7481H18.4275V24.6642Z" fill="black"/>
<path d="M18.4275 21.5802H15.355V24.6642H18.4275V21.5802Z" fill="black"/>
<path d="M18.4275 18.4962H15.355V21.5802H18.4275V18.4962Z" fill="black"/>
<path d="M18.4275 15.4198H15.355V18.5038H18.4275V15.4198Z" fill="black"/>
<path d="M18.4275 12.3358H15.355V15.4198H18.4275V12.3358Z" fill="black"/>
<path d="M18.4275 9.25195H15.355V12.3359H18.4275V9.25195Z" fill="black"/>
<path d="M18.4275 6.16797H15.355V9.25193H18.4275V6.16797Z" fill="black"/>
<path d="M18.4275 3.08398H15.355V6.16795H18.4275V3.08398Z" fill="black"/>
<path d="M18.435 0H15.3625V3.08396H18.435V0Z" fill="black"/>
<path d="M15.355 27.748H12.2825V30.832H15.355V27.748Z" fill="black"/>
<path d="M15.355 24.6642H12.2825V27.7481H15.355V24.6642Z" fill="black"/>
<path d="M15.355 21.5802H12.2825V24.6642H15.355V21.5802Z" fill="black"/>
<path d="M15.355 18.4962H12.2825V21.5802H15.355V18.4962Z" fill="black"/>
<path d="M15.355 15.4122H12.2825V18.4962H15.355V15.4122Z" fill="black"/>
<path d="M15.355 12.3358H12.2825V15.4198H15.355V12.3358Z" fill="black"/>
<path d="M15.3625 9.25195H12.29V12.3359H15.3625V9.25195Z" fill="black"/>
<path d="M15.3625 6.16797H12.29V9.25193H15.3625V6.16797Z" fill="black"/>
<path d="M15.3625 3.08398H12.29V6.16795H15.3625V3.08398Z" fill="black"/>
<path d="M15.3625 0H12.29V3.08396H15.3625V0Z" fill="black"/>
<path d="M12.2825 24.6642H9.20998V27.7481H12.2825V24.6642Z" fill="black"/>
<path d="M12.2825 21.5802H9.20998V24.6642H12.2825V21.5802Z" fill="black"/>
<path d="M12.2825 18.4962H9.20998V21.5802H12.2825V18.4962Z" fill="black"/>
<path d="M12.29 15.4122H9.21753V18.4962H12.29V15.4122Z" fill="black"/>
<path d="M12.29 12.3282H9.21753V15.4122H12.29V12.3282Z" fill="black"/>
<path d="M12.29 9.25195H9.21753V12.3359H12.29V9.25195Z" fill="black"/>
<path d="M12.29 6.16797H9.21753V9.25193H12.29V6.16797Z" fill="black"/>
<path d="M12.29 3.08398H9.21753V6.16795H12.29V3.08398Z" fill="black"/>
<path d="M12.29 0H9.21753V3.08396H12.29V0Z" fill="black"/>
<path d="M9.20997 21.5802H6.13747V24.6642H9.20997V21.5802Z" fill="black"/>
<path d="M9.21753 18.4962H6.14502V21.5802H9.21753V18.4962Z" fill="black"/>
<path d="M9.21753 15.4122H6.14502V18.4962H9.21753V15.4122Z" fill="black"/>
<path d="M9.21753 12.3282H6.14502V15.4122H9.21753V12.3282Z" fill="black"/>
<path d="M9.21753 9.25195H6.14502V12.3359H9.21753V9.25195Z" fill="black"/>
<path d="M9.21753 6.16797H6.14502V9.25193H9.21753V6.16797Z" fill="black"/>
<path d="M9.21753 3.08398H6.14502V6.16795H9.21753V3.08398Z" fill="black"/>
<path d="M9.21753 0H6.14502V3.08396H9.21753V0Z" fill="black"/>
<path d="M6.14502 18.4962H3.07251V21.5802H6.14502V18.4962Z" fill="black"/>
<path d="M6.14502 15.4122H3.07251V18.4962H6.14502V15.4122Z" fill="black"/>
<path d="M6.14502 12.3282H3.07251V15.4122H6.14502V12.3282Z" fill="black"/>
<path d="M6.14502 9.24426H3.07251V12.3282H6.14502V9.24426Z" fill="black"/>
<path d="M6.14502 6.16797H3.07251V9.25193H6.14502V6.16797Z" fill="black"/>
<path d="M6.14502 3.08398H3.07251V6.16795H6.14502V3.08398Z" fill="black"/>
<path d="M3.07251 15.4122H0V18.4962H3.07251V15.4122Z" fill="black"/>
<path d="M3.07251 12.3282H0V15.4122H3.07251V12.3282Z" fill="black"/>
<path d="M3.07251 9.24426H0V12.3282H3.07251V9.24426Z" fill="black"/>
<path d="M3.07251 6.16797H0V9.25193H3.07251V6.16797Z" fill="black"/>
</g>
<defs>
<clipPath id="clip0_117_63">
<rect width="43" height="37" fill="white"/>
</clipPath>
</defs>
</svg>
