<svg width="40" height="23" fill="none" xmlns="http://www.w3.org/2000/svg"><path d="M4.013 10.182v2.636c0 2.262.446 3.974 1.338 5.135.892 1.132 2.31 1.698 4.252 1.698 1.911 0 3.966-.462 6.164-1.385l1.194 3.082C14.349 22.449 11.817 23 9.364 23c-3.057 0-5.383-.908-6.975-2.724C.796 18.459 0 15.973 0 12.818v-2.636C0 7.027.796 4.54 2.389 2.724 3.98.908 6.307 0 9.364 0c1.147 0 2.325.149 3.536.447 1.242.268 2.484.655 3.726 1.16l-1.194 3.127a22.84 22.84 0 0 0-3.058-.983 11.444 11.444 0 0 0-2.77-.357c-1.944 0-3.361.58-4.253 1.742-.892 1.131-1.338 2.814-1.338 5.046ZM40 .447l-8.361 22.106H27.96L19.504.447h4.06L27.53 11.21l2.389 6.743 2.341-6.743L36.13.447H40Z" fill="#000"/></svg>