<svg width="51" height="53" fill="none" xmlns="http://www.w3.org/2000/svg"><path d="M40.693 49.75c-2.304 1.005-4.826 1.799-7.567 2.38-2.7.58-5.441.87-8.222.87-5.282 0-9.79-1.045-13.524-3.135-3.694-2.09-6.514-4.992-8.46-8.707C.972 37.443 0 33.128 0 28.212c0-4.024.636-7.74 1.907-11.145 1.27-3.444 3.078-6.444 5.421-8.998 2.344-2.554 5.144-4.528 8.401-5.921C18.986.716 22.581 0 26.513 0c3.654 0 6.97.6 9.95 1.8 2.979 1.2 5.56 2.863 7.745 4.992a21.578 21.578 0 0 1 5.005 7.488C50.404 17.105 51 20.182 51 23.51c0 3.212-.576 6.076-1.728 8.592-1.112 2.515-2.661 4.49-4.647 5.921-1.946 1.432-4.17 2.148-6.673 2.148-1.906 0-3.495-.387-4.766-1.161-1.232-.774-2.026-1.993-2.383-3.657-1.708 1.857-3.377 3.173-5.005 3.947-1.589.774-3.178 1.161-4.766 1.161-1.867 0-3.416-.522-4.648-1.567-1.191-1.084-2.005-2.554-2.442-4.412-.437-1.896-.477-4.025-.12-6.386l.477-3.192c.596-3.87 1.946-6.85 4.052-8.94 2.144-2.129 5.004-3.193 8.579-3.193 1.946 0 3.833.329 5.66.987a24 24 0 0 1 5.422 2.612L35.45 30.94c-.397 2.013-.298 3.406.298 4.18.635.736 1.509 1.103 2.621 1.103 1.39 0 2.681-.522 3.873-1.567 1.231-1.045 2.224-2.515 2.979-4.412.755-1.935 1.132-4.18 1.132-6.734 0-3.676-.834-6.966-2.503-9.868-1.668-2.941-3.991-5.263-6.97-6.966-2.94-1.742-6.395-2.612-10.367-2.612-3.257 0-6.236.6-8.937 1.8a20.032 20.032 0 0 0-6.97 5.108c-1.907 2.167-3.397 4.721-4.47 7.662-1.032 2.941-1.548 6.134-1.548 9.578 0 4.141.774 7.78 2.323 10.914 1.589 3.096 3.893 5.495 6.911 7.198 3.059 1.742 6.753 2.613 11.082 2.613 2.463 0 4.925-.29 7.388-.871 2.463-.542 4.727-1.297 6.792-2.264l1.609 3.947ZM18.827 28.095c-.397 2.593-.298 4.606.298 6.038.636 1.393 1.708 2.09 3.217 2.09 1.152 0 2.443-.465 3.873-1.394 1.43-.929 2.96-2.535 4.588-4.818l1.966-11.378c-1.947-1.045-3.793-1.567-5.541-1.567-2.344 0-4.15.696-5.422 2.09-1.271 1.393-2.105 3.308-2.502 5.747l-.477 3.192Z" fill="#000"/></svg>