<svg width="40" height="42" fill="none" xmlns="http://www.w3.org/2000/svg"><path d="M31.916 39.019c-1.807.79-3.785 1.411-5.935 1.867a30.602 30.602 0 0 1-6.448.683c-4.144 0-7.68-.82-10.608-2.459-2.897-1.639-5.109-3.916-6.635-6.83C.763 29.368 0 25.983 0 22.128c0-3.156.498-6.07 1.495-8.741.997-2.702 2.415-5.054 4.253-7.057 1.838-2.004 4.034-3.552 6.588-4.644C14.891.562 17.71 0 20.794 0c2.866 0 5.468.47 7.804 1.411 2.337.941 4.361 2.247 6.075 3.916a16.923 16.923 0 0 1 3.925 5.873C39.533 13.416 40 15.83 40 18.44c0 2.519-.452 4.765-1.355 6.738-.872 1.973-2.087 3.52-3.645 4.644-1.526 1.123-3.271 1.685-5.234 1.685-1.495 0-2.741-.304-3.738-.911-.966-.607-1.589-1.563-1.87-2.868-1.339 1.456-2.647 2.489-3.924 3.096-1.247.607-2.493.91-3.739.91-1.464 0-2.679-.41-3.645-1.23-.934-.849-1.573-2.002-1.915-3.46-.343-1.487-.374-3.156-.094-5.008l.374-2.504c.467-3.035 1.526-5.372 3.178-7.011 1.682-1.67 3.925-2.505 6.729-2.505 1.526 0 3.006.258 4.439.774a18.822 18.822 0 0 1 4.252 2.05l-2.01 11.427c-.31 1.579-.233 2.671.234 3.279.499.576 1.184.864 2.056.864 1.09 0 2.103-.41 3.038-1.229.966-.82 1.744-1.973 2.336-3.46.592-1.518.888-3.278.888-5.282 0-2.883-.654-5.463-1.962-7.74-1.309-2.306-3.131-4.128-5.468-5.463-2.305-1.366-5.015-2.049-8.13-2.049-2.555 0-4.892.47-7.01 1.411a15.711 15.711 0 0 0-5.467 4.007c-1.496 1.7-2.664 3.703-3.505 6.01-.81 2.307-1.215 4.811-1.215 7.512 0 3.248.608 6.101 1.823 8.56 1.246 2.428 3.053 4.31 5.42 5.646 2.399 1.366 5.296 2.049 8.692 2.049 1.931 0 3.863-.228 5.794-.683 1.932-.425 3.707-1.017 5.327-1.776l1.262 3.096Zm-17.15-16.983c-.311 2.034-.233 3.612.234 4.735.498 1.093 1.34 1.64 2.523 1.64.904 0 1.916-.365 3.038-1.093 1.121-.729 2.32-1.988 3.598-3.78l1.542-8.923c-1.527-.82-2.975-1.23-4.346-1.23-1.838 0-3.255.547-4.252 1.64-.997 1.092-1.651 2.595-1.963 4.507l-.374 2.504Z" fill="#000"/></svg>