<svg width="38" height="38" viewBox="0 0 38 38" fill="none" xmlns="http://www.w3.org/2000/svg">
<circle cx="19" cy="19" r="19" fill="#E9F3F3"/>
<path fill-rule="evenodd" clip-rule="evenodd" d="M5.00395 21.9738C4.68909 23.0907 4.66604 24.2403 4.94005 25.3679C5.29513 26.8291 6.13932 28.2133 7.40575 29.4109C8.67218 30.6085 10.3261 31.5865 12.2364 32.2674C14.1467 32.9484 16.261 33.3137 18.4118 33.3342C20.5626 33.3548 22.6908 33.0301 24.6278 32.386C26.5648 31.7418 28.2575 30.7958 29.5717 29.6229C30.8859 28.45 31.7856 27.0825 32.1995 25.6286C32.5436 24.4196 32.544 23.1786 32.2044 21.9738C30.9662 26.3695 25.3479 29.6883 18.6042 29.6883C11.8604 29.6883 6.24209 26.3695 5.00395 21.9738Z" fill="#057872"/>
<circle cx="13.4583" cy="19" r="2.375" fill="#057872"/>
<circle cx="24.5417" cy="19" r="2.375" fill="#057872"/>
</svg>
