<svg width="51" height="51" fill="none" xmlns="http://www.w3.org/2000/svg"><rect x="1.5" y="1.5" width="48" height="48" rx="24" stroke="#000" stroke-width="3"/><path d="M14.609 24.64v1.72c0 1.475.29 2.591.87 3.349.579.738 1.5 1.107 2.763 1.107 1.242 0 2.578-.301 4.006-.903l.777 2.01C21.327 32.64 19.68 33 18.087 33c-1.988 0-3.5-.592-4.534-1.777C12.518 30.04 12 28.418 12 26.36v-1.718c0-2.058.518-3.68 1.553-4.864C14.588 18.592 16.099 18 18.087 18c.745 0 1.511.097 2.298.291a14.5 14.5 0 0 1 2.422.758l-.776 2.038a14.8 14.8 0 0 0-1.988-.64 7.417 7.417 0 0 0-1.8-.233c-1.264 0-2.185.378-2.765 1.136-.58.737-.87 1.834-.87 3.29ZM38 18.291 32.565 32.71h-2.39L24.676 18.29h2.64l2.578 7.02 1.552 4.398 1.522-4.398 2.515-7.02H38Z" fill="#000"/></svg>