<svg width="48" height="48" fill="none" xmlns="http://www.w3.org/2000/svg"><circle cx="24" cy="24" r="24" fill="#E9F3F3"/><path fill-rule="evenodd" clip-rule="evenodd" d="M6.32 27.756a8.378 8.378 0 0 0-.08 4.288c.449 1.845 1.515 3.594 3.115 5.107 1.6 1.512 3.688 2.748 6.101 3.608 2.413.86 5.084 1.321 7.801 1.347 2.717.026 5.405-.384 7.852-1.197 2.447-.814 4.585-2.01 6.245-3.49 1.66-1.482 2.796-3.21 3.319-5.046a8.387 8.387 0 0 0 .006-4.617c-1.564 5.553-8.66 9.745-17.179 9.745-8.518 0-15.615-4.192-17.18-9.745Z" fill="#057872"/><circle cx="17" cy="24" r="3" fill="#057872"/><circle cx="31" cy="24" r="3" fill="#057872"/></svg>